<mxfile host="app.diagrams.net" modified="2024-01-15T19:49:26.255Z" agent="Mozilla/5.0 (Windows NT 10.0; Win64; x64) AppleWebKit/537.36 (KHTML, like Gecko) Chrome/120.0.0.0 Safari/537.36" etag="wgf9TerlHV-gfV6v2nXU" version="22.1.18" type="device">
  <diagram name="Strona-1" id="uL_BOIQfOMwA9e9EQ-xa">
    <mxGraphModel dx="1050" dy="587" grid="1" gridSize="10" guides="1" tooltips="1" connect="1" arrows="1" fold="1" page="1" pageScale="1" pageWidth="1169" pageHeight="827" background="#000000" math="0" shadow="0">
      <root>
        <mxCell id="0" />
        <mxCell id="1" parent="0" />
        <mxCell id="ib7rz0DjZjpNpzXAIk-6-1" value="" style="points=[[0,0,0],[0.25,0,0],[0.5,0,0],[0.75,0,0],[1,0,0],[0,1,0],[0.25,1,0],[0.5,1,0],[0.75,1,0],[1,1,0],[0,0.25,0],[0,0.5,0],[0,0.75,0],[1,0.25,0],[1,0.5,0],[1,0.75,0]];outlineConnect=0;dashed=0;verticalLabelPosition=bottom;verticalAlign=top;align=center;fontSize=12;fontStyle=0;aspect=fixed;shape=mxgraph.aws4.resourceIcon;resIcon=mxgraph.aws4.desktop_and_app_streaming;textOpacity=0;labelBackgroundColor=none;rounded=0;" vertex="1" parent="1">
          <mxGeometry x="170" y="201" width="158" height="158" as="geometry" />
        </mxCell>
        <mxCell id="ib7rz0DjZjpNpzXAIk-6-3" value="" style="aspect=fixed;pointerEvents=1;shadow=0;dashed=0;html=1;strokeColor=none;labelPosition=center;verticalLabelPosition=bottom;verticalAlign=top;align=center;shape=mxgraph.mscae.enterprise.application_server;labelBackgroundColor=none;rounded=0;" vertex="1" parent="1">
          <mxGeometry x="620" y="199" width="137.6" height="160" as="geometry" />
        </mxCell>
        <mxCell id="ib7rz0DjZjpNpzXAIk-6-6" value="Dane wprowadzone w formularzu" style="text;html=1;strokeColor=none;fillColor=none;align=center;verticalAlign=middle;whiteSpace=wrap;rounded=0;labelBackgroundColor=none;fontColor=#FFFFFF;" vertex="1" parent="1">
          <mxGeometry x="355" y="210" width="230" height="30" as="geometry" />
        </mxCell>
        <mxCell id="ib7rz0DjZjpNpzXAIk-6-8" value="" style="shape=flexArrow;endArrow=classic;html=1;rounded=0;exitX=1;exitY=0;exitDx=0;exitDy=0;exitPerimeter=0;entryX=0.02;entryY=0.01;entryDx=0;entryDy=0;entryPerimeter=0;labelBackgroundColor=#FFFFFF;fontColor=#FFFFFF;strokeColor=#FFFFFF;labelBorderColor=#FFFFFF;fillColor=default;" edge="1" parent="1">
          <mxGeometry width="50" height="50" relative="1" as="geometry">
            <mxPoint x="328" y="250.4" as="sourcePoint" />
            <mxPoint x="622.752" y="250.00000000000003" as="targetPoint" />
          </mxGeometry>
        </mxCell>
        <mxCell id="ib7rz0DjZjpNpzXAIk-6-9" value="" style="shape=flexArrow;endArrow=classic;html=1;rounded=0;entryX=1;entryY=0.75;entryDx=0;entryDy=0;entryPerimeter=0;exitX=0.009;exitY=0.757;exitDx=0;exitDy=0;exitPerimeter=0;labelBackgroundColor=none;fontColor=#FFFFFF;strokeColor=#FFFFFF;fillColor=default;" edge="1" parent="1">
          <mxGeometry width="50" height="50" relative="1" as="geometry">
            <mxPoint x="621.6184" y="300.62" as="sourcePoint" />
            <mxPoint x="328.38" y="300" as="targetPoint" />
          </mxGeometry>
        </mxCell>
        <mxCell id="ib7rz0DjZjpNpzXAIk-6-10" value="Błędy" style="text;html=1;align=center;verticalAlign=middle;whiteSpace=wrap;rounded=0;labelBackgroundColor=none;fontColor=#FFFFFF;" vertex="1" parent="1">
          <mxGeometry x="440" y="310" width="60" height="30" as="geometry" />
        </mxCell>
      </root>
    </mxGraphModel>
  </diagram>
</mxfile>
